<svg xmlns="http://www.w3.org/2000/svg" viewBox="0 0 100 100" preserveAspectRatio="xMidYMid" class="uil-default"><path fill="none" class="bk" d="M0 0h100v100H0z"/><rect x="46.5" y="40" width="7" height="20" rx="5" ry="5" fill="#549ad9" transform="translate(0 -30)"><animate attributeName="opacity" from="1" to="0" dur="1s" begin="0s" repeatCount="indefinite"/></rect><rect x="46.5" y="40" width="7" height="20" rx="5" ry="5" fill="#549ad9" transform="rotate(24 120.57 65)"><animate attributeName="opacity" from="1" to="0" dur="1s" begin="0.06666666666666667s" repeatCount="indefinite"/></rect><rect x="46.5" y="40" width="7" height="20" rx="5" ry="5" fill="#549ad9" transform="rotate(48 83.69 65)"><animate attributeName="opacity" from="1" to="0" dur="1s" begin="0.13333333333333333s" repeatCount="indefinite"/></rect><rect x="46.5" y="40" width="7" height="20" rx="5" ry="5" fill="#549ad9" transform="rotate(72 70.646 65)"><animate attributeName="opacity" from="1" to="0" dur="1s" begin="0.2s" repeatCount="indefinite"/></rect><rect x="46.5" y="40" width="7" height="20" rx="5" ry="5" fill="#549ad9" transform="rotate(96 63.506 65)"><animate attributeName="opacity" from="1" to="0" dur="1s" begin="0.26666666666666666s" repeatCount="indefinite"/></rect><rect x="46.5" y="40" width="7" height="20" rx="5" ry="5" fill="#549ad9" transform="rotate(120 58.66 65)"><animate attributeName="opacity" from="1" to="0" dur="1s" begin="0.3333333333333333s" repeatCount="indefinite"/></rect><rect x="46.5" y="40" width="7" height="20" rx="5" ry="5" fill="#549ad9" transform="rotate(144 54.874 65)"><animate attributeName="opacity" from="1" to="0" dur="1s" begin="0.4s" repeatCount="indefinite"/></rect><rect x="46.5" y="40" width="7" height="20" rx="5" ry="5" fill="#549ad9" transform="rotate(168 51.577 65)"><animate attributeName="opacity" from="1" to="0" dur="1s" begin="0.4666666666666667s" repeatCount="indefinite"/></rect><rect x="46.5" y="40" width="7" height="20" rx="5" ry="5" fill="#549ad9" transform="rotate(-168 48.423 65)"><animate attributeName="opacity" from="1" to="0" dur="1s" begin="0.5333333333333333s" repeatCount="indefinite"/></rect><rect x="46.5" y="40" width="7" height="20" rx="5" ry="5" fill="#549ad9" transform="rotate(-144 45.126 65)"><animate attributeName="opacity" from="1" to="0" dur="1s" begin="0.6s" repeatCount="indefinite"/></rect><rect x="46.5" y="40" width="7" height="20" rx="5" ry="5" fill="#549ad9" transform="rotate(-120 41.34 65)"><animate attributeName="opacity" from="1" to="0" dur="1s" begin="0.6666666666666666s" repeatCount="indefinite"/></rect><rect x="46.5" y="40" width="7" height="20" rx="5" ry="5" fill="#549ad9" transform="rotate(-96 36.494 65)"><animate attributeName="opacity" from="1" to="0" dur="1s" begin="0.7333333333333333s" repeatCount="indefinite"/></rect><rect x="46.5" y="40" width="7" height="20" rx="5" ry="5" fill="#549ad9" transform="rotate(-72 29.354 65)"><animate attributeName="opacity" from="1" to="0" dur="1s" begin="0.8s" repeatCount="indefinite"/></rect><rect x="46.5" y="40" width="7" height="20" rx="5" ry="5" fill="#549ad9" transform="rotate(-48 16.31 65)"><animate attributeName="opacity" from="1" to="0" dur="1s" begin="0.8666666666666667s" repeatCount="indefinite"/></rect><rect x="46.5" y="40" width="7" height="20" rx="5" ry="5" fill="#549ad9" transform="rotate(-24 -20.57 65)"><animate attributeName="opacity" from="1" to="0" dur="1s" begin="0.9333333333333333s" repeatCount="indefinite"/></rect></svg>